<svg id="logo" xmlns="http://www.w3.org/2000/svg" width="193.645" height="208.98" viewBox="0 0 193.645 208.98">
  <g id="Group_50" data-name="Group 50">
    <g id="Group_48" data-name="Group 48" transform="translate(0 144.795)">
      <path id="Path_5109" data-name="Path 5109" d="M228.7,130.931H37.5a1.224,1.224,0,1,1,0-2.448H228.7a1.224,1.224,0,1,1,0,2.448Z" transform="translate(-36.279 -128.483)" fill="#23120b"/>
    </g>
    <path id="Path_5110" data-name="Path 5110" d="M172.175,79.369a2.936,2.936,0,0,0-2.281-1.088H80.15l-2.717-7.462a2.939,2.939,0,0,0-2.759-1.933H50.538a2.938,2.938,0,0,0,0,5.876H72.616l20.048,55.066-5.332,20.709a2.936,2.936,0,0,0,2.844,3.67h6.809a10.838,10.838,0,0,0,20.867,0h18.908a10.841,10.841,0,1,0,0-5.874H117.852a10.838,10.838,0,0,0-20.867,0H93.966l4.046-15.717h61.642a2.937,2.937,0,0,0,2.875-2.329l10.238-48.459A2.935,2.935,0,0,0,172.175,79.369ZM147.193,146.3a4.966,4.966,0,1,1-4.966,4.966A4.972,4.972,0,0,1,147.193,146.3Zm-39.774,0a4.966,4.966,0,1,1-4.947,5.324,2.657,2.657,0,0,0,0-.717A4.969,4.969,0,0,1,107.42,146.3ZM135.18,126.74l-7.319-18.4h13.213l7.318,18.4Zm-19.536,0-7.318-18.4h13.212l7.318,18.4Zm-24.55-18.4H102l7.318,18.4H97.792Zm20.824-24.185,7.283,18.31H105.99l-7.284-18.31Zm13.605,18.31-7.283-18.31h13.212l7.284,18.31Zm12.253-18.31h13.212l7.283,18.31H145.06Zm25.386,14.708-5.85-14.708h8.957ZM92.383,84.157l7.283,18.31H88.955l-6.666-18.31Zm64.891,42.583h-2.559l-7.318-18.4h13.212l.36.9Z" transform="translate(-30.398 -14.647)" fill="#23120b"/>
    <g id="Group_49" data-name="Group 49" transform="translate(49.522)">
      <path id="Path_5111" data-name="Path 5111" d="M126.031,54a2.936,2.936,0,0,0-2.085,3.592,40.036,40.036,0,0,1-.445,21.85,2.937,2.937,0,1,0,5.611,1.74,45.351,45.351,0,0,0,.512-25.1A2.936,2.936,0,0,0,126.031,54Z" transform="translate(-40.561 -22.434)" fill="#fdb827"/>
      <path id="Path_5112" data-name="Path 5112" d="M124.1,40.328a39.687,39.687,0,0,1,20.858,13.563,2.938,2.938,0,0,0,4.59-3.67A45.321,45.321,0,0,0,70.831,91.867a2.938,2.938,0,1,0,5.614-1.731A39.458,39.458,0,0,1,124.1,40.328Z" transform="translate(-68.871 -33.19)" fill="#fdb827"/>
      <path id="Path_5113" data-name="Path 5113" d="M150.39,47.365a2.937,2.937,0,0,0-4.077-.8L101.482,76.72,93.7,57.156a2.938,2.938,0,0,0-5.459,2.171l9.129,22.949A2.939,2.939,0,0,0,99.231,84a2.974,2.974,0,0,0,.868.131,2.935,2.935,0,0,0,1.64-.5l47.854-32.187A2.937,2.937,0,0,0,150.39,47.365Z" transform="translate(-58.917 -26.501)" fill="#fdb827"/>
    </g>
  </g>
  <text id="B2C_Sooq" data-name="B2C Sooq" transform="translate(97 195.98)" fill="#23120b" font-size="38" font-family="AdobeArabic-Regular, Adobe Arabic"><tspan x="-56.889" y="0">B2C </tspan><tspan y="0" fill="#fdb827">Sooq</tspan></text>
</svg>
